<?xml version="1.0" encoding="UTF-8"?>
<svg width="18px" height="18px" viewBox="0 0 18 18" version="1.1" xmlns="http://www.w3.org/2000/svg" xmlns:xlink="http://www.w3.org/1999/xlink">
    <!-- Generator: Sketch 61 (89581) - https://sketch.com -->
    <title>编辑 icon</title>
    <desc>Created with Sketch.</desc>
    <g id="页面-1" stroke="none" stroke-width="1" fill="none" fill-rule="evenodd">
        <g id="05用户管理_02用户列表_02_01用户信息" transform="translate(-394.000000, -317.000000)" stroke="#4578F8">
            <g id="基本信息" transform="translate(320.000000, 310.000000)">
                <g id="标题">
                    <g id="编辑-icon" transform="translate(75.000000, 8.000000)">
                        <path d="M5.15957895,10.8026105 L5.76505263,8.14324211 L13.1983158,0.709978947 C13.5831579,0.325136842 14.2071579,0.325136842 14.5928421,0.709978947 L15.2901053,1.40724211 C15.6749474,1.79208421 15.6749474,2.41692632 15.2901053,2.80176842 L7.79284211,10.2990316 L5.15957895,10.8026105 Z" id="Stroke-1"></path>
                        <line x1="5.93995789" y1="7.90046316" x2="8.26332632" y2="10.2238316" id="Stroke-3"></line>
                        <line x1="11.8569263" y1="1.98315789" x2="14.1802947" y2="4.30652632" id="Stroke-5"></line>
                        <path d="M15.5789474,7.36185263 L15.5789474,14.7370105 C15.5789474,15.2018526 15.2025263,15.5791158 14.7368421,15.5791158 L1.26315789,15.5791158 C0.797473684,15.5791158 0.421052632,15.2018526 0.421052632,14.7370105 L0.421052632,1.26332632 C0.421052632,0.798484211 0.797473684,0.421221053 1.26315789,0.421221053 L8.56757895,0.421221053" id="Stroke-7" stroke-linecap="round"></path>
                    </g>
                </g>
            </g>
        </g>
    </g>
</svg>